<mxfile host="app.diagrams.net" modified="2024-04-20T21:59:28.655Z" agent="Mozilla/5.0 (Windows NT 10.0; Win64; x64) AppleWebKit/537.36 (KHTML, like Gecko) Chrome/124.0.0.0 Safari/537.36" etag="RZ8_uhmWy6fv8ZIUsoGF" version="24.2.5" type="device">
  <diagram name="PÃ¡gina-1" id="F0uWlnmr44knBx-4w7JQ">
    <mxGraphModel dx="1687" dy="908" grid="1" gridSize="10" guides="1" tooltips="1" connect="1" arrows="1" fold="1" page="1" pageScale="1" pageWidth="827" pageHeight="1169" math="0" shadow="0">
      <root>
        <mxCell id="0" />
        <mxCell id="1" parent="0" />
        <mxCell id="AiRU8HiQy_UBQf-SetSs-1" value="Process SIP" style="rounded=0;whiteSpace=wrap;html=1;" vertex="1" parent="1">
          <mxGeometry x="401" y="201" width="120" height="60" as="geometry" />
        </mxCell>
        <mxCell id="AiRU8HiQy_UBQf-SetSs-2" value="Send First Command" style="rounded=0;whiteSpace=wrap;html=1;" vertex="1" parent="1">
          <mxGeometry x="401" y="80" width="120" height="60" as="geometry" />
        </mxCell>
        <mxCell id="AiRU8HiQy_UBQf-SetSs-3" value="" style="endArrow=classic;html=1;rounded=0;entryX=0.5;entryY=0;entryDx=0;entryDy=0;" edge="1" parent="1" source="AiRU8HiQy_UBQf-SetSs-2" target="AiRU8HiQy_UBQf-SetSs-1">
          <mxGeometry width="50" height="50" relative="1" as="geometry">
            <mxPoint x="471" y="420" as="sourcePoint" />
            <mxPoint x="521" y="370" as="targetPoint" />
          </mxGeometry>
        </mxCell>
        <mxCell id="AiRU8HiQy_UBQf-SetSs-4" value="Exist SIP" style="rhombus;whiteSpace=wrap;html=1;" vertex="1" parent="1">
          <mxGeometry x="421" y="320" width="80" height="80" as="geometry" />
        </mxCell>
        <mxCell id="AiRU8HiQy_UBQf-SetSs-5" value="" style="endArrow=classic;html=1;rounded=0;exitX=0;exitY=0.5;exitDx=0;exitDy=0;entryX=0;entryY=0.5;entryDx=0;entryDy=0;" edge="1" parent="1" source="AiRU8HiQy_UBQf-SetSs-4" target="AiRU8HiQy_UBQf-SetSs-1">
          <mxGeometry width="50" height="50" relative="1" as="geometry">
            <mxPoint x="471" y="420" as="sourcePoint" />
            <mxPoint x="521" y="370" as="targetPoint" />
            <Array as="points">
              <mxPoint x="361" y="360" />
              <mxPoint x="361" y="230" />
            </Array>
          </mxGeometry>
        </mxCell>
        <mxCell id="AiRU8HiQy_UBQf-SetSs-6" value="" style="endArrow=classic;html=1;rounded=0;exitX=0.5;exitY=1;exitDx=0;exitDy=0;" edge="1" parent="1" source="AiRU8HiQy_UBQf-SetSs-1" target="AiRU8HiQy_UBQf-SetSs-4">
          <mxGeometry width="50" height="50" relative="1" as="geometry">
            <mxPoint x="471" y="420" as="sourcePoint" />
            <mxPoint x="521" y="370" as="targetPoint" />
          </mxGeometry>
        </mxCell>
        <mxCell id="AiRU8HiQy_UBQf-SetSs-7" value="No" style="text;html=1;align=center;verticalAlign=middle;whiteSpace=wrap;rounded=0;" vertex="1" parent="1">
          <mxGeometry x="381" y="340" width="60" height="30" as="geometry" />
        </mxCell>
        <mxCell id="AiRU8HiQy_UBQf-SetSs-8" value="Yes" style="text;html=1;align=center;verticalAlign=middle;whiteSpace=wrap;rounded=0;" vertex="1" parent="1">
          <mxGeometry x="451" y="390" width="60" height="30" as="geometry" />
        </mxCell>
        <mxCell id="AiRU8HiQy_UBQf-SetSs-9" value="" style="endArrow=classic;html=1;rounded=0;entryX=0.5;entryY=0;entryDx=0;entryDy=0;exitX=0.5;exitY=1;exitDx=0;exitDy=0;" edge="1" parent="1" source="AiRU8HiQy_UBQf-SetSs-4" target="AiRU8HiQy_UBQf-SetSs-10">
          <mxGeometry width="50" height="50" relative="1" as="geometry">
            <mxPoint x="491" y="410" as="sourcePoint" />
            <mxPoint x="461" y="450" as="targetPoint" />
          </mxGeometry>
        </mxCell>
        <mxCell id="AiRU8HiQy_UBQf-SetSs-10" value="Exist&amp;nbsp;&lt;div&gt;Obstacle&lt;/div&gt;" style="rhombus;whiteSpace=wrap;html=1;" vertex="1" parent="1">
          <mxGeometry x="421" y="470" width="80" height="80" as="geometry" />
        </mxCell>
        <mxCell id="AiRU8HiQy_UBQf-SetSs-12" value="" style="endArrow=classic;html=1;rounded=0;exitX=1;exitY=0.5;exitDx=0;exitDy=0;" edge="1" parent="1" source="AiRU8HiQy_UBQf-SetSs-10">
          <mxGeometry width="50" height="50" relative="1" as="geometry">
            <mxPoint x="471" y="520" as="sourcePoint" />
            <mxPoint x="581" y="510" as="targetPoint" />
          </mxGeometry>
        </mxCell>
        <mxCell id="AiRU8HiQy_UBQf-SetSs-13" value="Send Stop" style="rounded=0;whiteSpace=wrap;html=1;" vertex="1" parent="1">
          <mxGeometry x="581" y="480" width="120" height="60" as="geometry" />
        </mxCell>
        <mxCell id="AiRU8HiQy_UBQf-SetSs-14" value="Yes" style="text;html=1;align=center;verticalAlign=middle;whiteSpace=wrap;rounded=0;" vertex="1" parent="1">
          <mxGeometry x="481" y="489" width="60" height="30" as="geometry" />
        </mxCell>
        <mxCell id="AiRU8HiQy_UBQf-SetSs-15" value="" style="endArrow=classic;html=1;rounded=0;exitX=0;exitY=0.5;exitDx=0;exitDy=0;entryX=1;entryY=0.5;entryDx=0;entryDy=0;" edge="1" parent="1" source="AiRU8HiQy_UBQf-SetSs-10" target="AiRU8HiQy_UBQf-SetSs-16">
          <mxGeometry width="50" height="50" relative="1" as="geometry">
            <mxPoint x="471.31900452488685" y="579.9990045248868" as="sourcePoint" />
            <mxPoint x="461" y="610" as="targetPoint" />
          </mxGeometry>
        </mxCell>
        <mxCell id="AiRU8HiQy_UBQf-SetSs-16" value="Exist&lt;div&gt;Trash&lt;/div&gt;" style="rhombus;whiteSpace=wrap;html=1;" vertex="1" parent="1">
          <mxGeometry x="271" y="470" width="80" height="80" as="geometry" />
        </mxCell>
        <mxCell id="AiRU8HiQy_UBQf-SetSs-17" value="No" style="text;html=1;align=center;verticalAlign=middle;whiteSpace=wrap;rounded=0;" vertex="1" parent="1">
          <mxGeometry x="381" y="487" width="60" height="30" as="geometry" />
        </mxCell>
        <mxCell id="AiRU8HiQy_UBQf-SetSs-18" value="" style="endArrow=classic;html=1;rounded=0;exitX=0;exitY=0.5;exitDx=0;exitDy=0;" edge="1" parent="1" source="AiRU8HiQy_UBQf-SetSs-16">
          <mxGeometry width="50" height="50" relative="1" as="geometry">
            <mxPoint x="511" y="520" as="sourcePoint" />
            <mxPoint x="191" y="510" as="targetPoint" />
          </mxGeometry>
        </mxCell>
        <mxCell id="AiRU8HiQy_UBQf-SetSs-19" value="Send Stop" style="rounded=0;whiteSpace=wrap;html=1;" vertex="1" parent="1">
          <mxGeometry x="70" y="480" width="120" height="60" as="geometry" />
        </mxCell>
        <mxCell id="AiRU8HiQy_UBQf-SetSs-20" value="" style="endArrow=classic;html=1;rounded=0;entryX=1;entryY=0.5;entryDx=0;entryDy=0;" edge="1" parent="1" source="AiRU8HiQy_UBQf-SetSs-13" target="AiRU8HiQy_UBQf-SetSs-1">
          <mxGeometry width="50" height="50" relative="1" as="geometry">
            <mxPoint x="511" y="520" as="sourcePoint" />
            <mxPoint x="591" y="520" as="targetPoint" />
            <Array as="points">
              <mxPoint x="641" y="230" />
            </Array>
          </mxGeometry>
        </mxCell>
        <mxCell id="AiRU8HiQy_UBQf-SetSs-21" value="" style="endArrow=classic;html=1;rounded=0;entryX=0;entryY=0.5;entryDx=0;entryDy=0;" edge="1" parent="1" source="AiRU8HiQy_UBQf-SetSs-19" target="AiRU8HiQy_UBQf-SetSs-1">
          <mxGeometry width="50" height="50" relative="1" as="geometry">
            <mxPoint x="651" y="490" as="sourcePoint" />
            <mxPoint x="360" y="230" as="targetPoint" />
            <Array as="points">
              <mxPoint x="130" y="230" />
            </Array>
          </mxGeometry>
        </mxCell>
        <mxCell id="AiRU8HiQy_UBQf-SetSs-22" value="Yes" style="text;html=1;align=center;verticalAlign=middle;whiteSpace=wrap;rounded=0;" vertex="1" parent="1">
          <mxGeometry x="222" y="489" width="60" height="30" as="geometry" />
        </mxCell>
        <mxCell id="AiRU8HiQy_UBQf-SetSs-23" value="No" style="text;html=1;align=center;verticalAlign=middle;whiteSpace=wrap;rounded=0;" vertex="1" parent="1">
          <mxGeometry x="291" y="540" width="60" height="30" as="geometry" />
        </mxCell>
        <mxCell id="AiRU8HiQy_UBQf-SetSs-24" value="" style="endArrow=classic;html=1;rounded=0;exitX=0.5;exitY=1;exitDx=0;exitDy=0;entryX=0.5;entryY=0;entryDx=0;entryDy=0;" edge="1" parent="1" source="AiRU8HiQy_UBQf-SetSs-16" target="AiRU8HiQy_UBQf-SetSs-25">
          <mxGeometry width="50" height="50" relative="1" as="geometry">
            <mxPoint x="471" y="410" as="sourcePoint" />
            <mxPoint x="310" y="620" as="targetPoint" />
          </mxGeometry>
        </mxCell>
        <mxCell id="AiRU8HiQy_UBQf-SetSs-25" value="Motors&lt;br&gt;OFF" style="rhombus;whiteSpace=wrap;html=1;" vertex="1" parent="1">
          <mxGeometry x="271" y="620" width="80" height="80" as="geometry" />
        </mxCell>
        <mxCell id="AiRU8HiQy_UBQf-SetSs-26" value="" style="endArrow=classic;html=1;rounded=0;exitX=0;exitY=0.5;exitDx=0;exitDy=0;entryX=0;entryY=0.5;entryDx=0;entryDy=0;" edge="1" parent="1" source="AiRU8HiQy_UBQf-SetSs-25" target="AiRU8HiQy_UBQf-SetSs-1">
          <mxGeometry width="50" height="50" relative="1" as="geometry">
            <mxPoint x="140" y="490" as="sourcePoint" />
            <mxPoint x="130" y="230" as="targetPoint" />
            <Array as="points">
              <mxPoint x="40" y="660" />
              <mxPoint x="40" y="230" />
            </Array>
          </mxGeometry>
        </mxCell>
        <mxCell id="AiRU8HiQy_UBQf-SetSs-27" value="No" style="text;html=1;align=center;verticalAlign=middle;whiteSpace=wrap;rounded=0;" vertex="1" parent="1">
          <mxGeometry x="228" y="638" width="60" height="30" as="geometry" />
        </mxCell>
        <mxCell id="AiRU8HiQy_UBQf-SetSs-28" value="Yes" style="text;html=1;align=center;verticalAlign=middle;whiteSpace=wrap;rounded=0;" vertex="1" parent="1">
          <mxGeometry x="301" y="683" width="60" height="30" as="geometry" />
        </mxCell>
        <mxCell id="AiRU8HiQy_UBQf-SetSs-29" value="" style="endArrow=classic;html=1;rounded=0;exitX=0.5;exitY=1;exitDx=0;exitDy=0;" edge="1" parent="1" source="AiRU8HiQy_UBQf-SetSs-25">
          <mxGeometry width="50" height="50" relative="1" as="geometry">
            <mxPoint x="321" y="560" as="sourcePoint" />
            <mxPoint x="310" y="760" as="targetPoint" />
          </mxGeometry>
        </mxCell>
        <mxCell id="AiRU8HiQy_UBQf-SetSs-30" value="Distance&lt;div&gt;Compels&lt;br&gt;&lt;/div&gt;" style="rhombus;whiteSpace=wrap;html=1;" vertex="1" parent="1">
          <mxGeometry x="271" y="760" width="80" height="80" as="geometry" />
        </mxCell>
        <mxCell id="AiRU8HiQy_UBQf-SetSs-31" value="" style="endArrow=classic;html=1;rounded=0;exitX=1;exitY=0.5;exitDx=0;exitDy=0;" edge="1" parent="1" source="AiRU8HiQy_UBQf-SetSs-30">
          <mxGeometry width="50" height="50" relative="1" as="geometry">
            <mxPoint x="390" y="720" as="sourcePoint" />
            <mxPoint x="440" y="800" as="targetPoint" />
          </mxGeometry>
        </mxCell>
        <mxCell id="AiRU8HiQy_UBQf-SetSs-32" value="No" style="text;html=1;align=center;verticalAlign=middle;whiteSpace=wrap;rounded=0;" vertex="1" parent="1">
          <mxGeometry x="330" y="779" width="60" height="30" as="geometry" />
        </mxCell>
        <mxCell id="AiRU8HiQy_UBQf-SetSs-33" value="Resend Command" style="rounded=0;whiteSpace=wrap;html=1;" vertex="1" parent="1">
          <mxGeometry x="441" y="770" width="120" height="60" as="geometry" />
        </mxCell>
        <mxCell id="AiRU8HiQy_UBQf-SetSs-35" value="" style="endArrow=classic;html=1;rounded=0;exitX=1;exitY=0.5;exitDx=0;exitDy=0;entryX=1;entryY=0.5;entryDx=0;entryDy=0;" edge="1" parent="1" source="AiRU8HiQy_UBQf-SetSs-33" target="AiRU8HiQy_UBQf-SetSs-1">
          <mxGeometry width="50" height="50" relative="1" as="geometry">
            <mxPoint x="390" y="520" as="sourcePoint" />
            <mxPoint x="440" y="470" as="targetPoint" />
            <Array as="points">
              <mxPoint x="740" y="800" />
              <mxPoint x="740" y="230" />
            </Array>
          </mxGeometry>
        </mxCell>
        <mxCell id="AiRU8HiQy_UBQf-SetSs-38" value="" style="endArrow=classic;html=1;rounded=0;exitX=0;exitY=0.5;exitDx=0;exitDy=0;" edge="1" parent="1" source="AiRU8HiQy_UBQf-SetSs-30" target="AiRU8HiQy_UBQf-SetSs-39">
          <mxGeometry width="50" height="50" relative="1" as="geometry">
            <mxPoint x="361" y="810" as="sourcePoint" />
            <mxPoint x="170" y="800" as="targetPoint" />
          </mxGeometry>
        </mxCell>
        <mxCell id="AiRU8HiQy_UBQf-SetSs-39" value="Send new Command" style="rounded=0;whiteSpace=wrap;html=1;" vertex="1" parent="1">
          <mxGeometry x="50" y="770" width="120" height="60" as="geometry" />
        </mxCell>
        <mxCell id="AiRU8HiQy_UBQf-SetSs-40" value="" style="endArrow=classic;html=1;rounded=0;entryX=0;entryY=0.5;entryDx=0;entryDy=0;exitX=0;exitY=0.5;exitDx=0;exitDy=0;" edge="1" parent="1" source="AiRU8HiQy_UBQf-SetSs-39" target="AiRU8HiQy_UBQf-SetSs-1">
          <mxGeometry width="50" height="50" relative="1" as="geometry">
            <mxPoint x="390" y="520" as="sourcePoint" />
            <mxPoint x="440" y="470" as="targetPoint" />
            <Array as="points">
              <mxPoint x="10" y="800" />
              <mxPoint x="20" y="230" />
            </Array>
          </mxGeometry>
        </mxCell>
        <mxCell id="AiRU8HiQy_UBQf-SetSs-41" value="Yes" style="text;html=1;align=center;verticalAlign=middle;whiteSpace=wrap;rounded=0;" vertex="1" parent="1">
          <mxGeometry x="231" y="778" width="60" height="30" as="geometry" />
        </mxCell>
      </root>
    </mxGraphModel>
  </diagram>
</mxfile>
